<?xml version="1.0" encoding="utf-8"?>
<!-- Generator: Adobe Illustrator 16.0.0, SVG Export Plug-In . SVG Version: 6.00 Build 0)  -->
<!DOCTYPE svg PUBLIC "-//W3C//DTD SVG 1.1//EN" "http://www.w3.org/Graphics/SVG/1.1/DTD/svg11.dtd">
<svg version="1.1" id="Layer_1" xmlns="http://www.w3.org/2000/svg" xmlns:xlink="http://www.w3.org/1999/xlink" x="0px" y="0px"
	 width="316.169px" height="36.867px" viewBox="0 0 316.169 36.867" enable-background="new 0 0 316.169 36.867"
	 xml:space="preserve">
<g>
	<g>
		<path fill="#008066" d="M128.995,10.642h1.48l4.143,9.616h-1.956l-0.897-2.201h-4.169l-0.869,2.201h-1.915L128.995,10.642z
			 M131.167,16.59l-1.48-3.912l-1.508,3.912H131.167z"/>
		<path fill="#008066" d="M135.193,13.738h1.548v1.018h0.027c0.286-0.611,0.91-1.181,1.997-1.181c1.005,0,1.698,0.394,2.037,1.209
			c0.476-0.829,1.168-1.209,2.146-1.209c1.739,0,2.35,1.236,2.35,2.798v3.884h-1.629v-3.695c0-0.814-0.245-1.521-1.209-1.521
			c-1.019,0-1.398,0.842-1.398,1.685v3.531h-1.631v-3.884c0-0.802-0.325-1.332-1.114-1.332c-1.072,0-1.494,0.788-1.494,1.657v3.559
			h-1.629V13.738z"/>
		<path fill="#008066" d="M147.828,17.568c0.108,0.965,0.842,1.549,1.752,1.549c0.815,0,1.345-0.381,1.752-0.883l1.168,0.883
			c-0.762,0.936-1.726,1.303-2.758,1.303c-1.969,0-3.544-1.371-3.544-3.422c0-2.051,1.575-3.423,3.544-3.423
			c1.819,0,3.056,1.276,3.056,3.545v0.448H147.828z M151.169,16.346c-0.013-0.95-0.638-1.548-1.656-1.548
			c-0.964,0-1.562,0.612-1.685,1.548H151.169z"/>
		<path fill="#008066" d="M153.771,13.738h1.631v1.032h0.026c0.354-0.747,1.073-1.195,1.929-1.195c0.204,0,0.395,0.041,0.584,0.095
			v1.576c-0.271-0.068-0.53-0.123-0.788-0.123c-1.535,0-1.751,1.29-1.751,1.644v3.491h-1.631V13.738z"/>
		<path fill="#008066" d="M159.607,10.546c0.598,0,1.06,0.421,1.06,0.978c0,0.558-0.462,0.978-1.06,0.978s-1.032-0.461-1.032-0.978
			C158.575,11.008,159.01,10.546,159.607,10.546z M158.806,13.738h1.63v6.52h-1.63V13.738z"/>
		<path fill="#008066" d="M166.219,15.694c-0.381-0.394-0.802-0.652-1.236-0.652c-1.195,0-1.915,0.937-1.915,1.956
			c0,1.018,0.72,1.955,1.915,1.955c0.504,0,0.965-0.217,1.264-0.611l1.086,1.17c-0.665,0.664-1.779,0.908-2.35,0.908
			c-1.969,0-3.545-1.371-3.545-3.422c0-2.051,1.576-3.423,3.545-3.423c0.829,0,1.738,0.298,2.363,0.991L166.219,15.694z"/>
		<path fill="#008066" d="M172.108,19.361h-0.04c-0.462,0.732-1.223,1.059-2.092,1.059c-1.209,0-2.377-0.664-2.377-1.955
			c0-2.119,2.472-2.268,4.102-2.268h0.407V16.02c0-0.801-0.624-1.223-1.493-1.223c-0.679,0-1.304,0.272-1.738,0.679l-0.855-0.855
			c0.719-0.733,1.738-1.046,2.771-1.046c2.783,0,2.783,2.01,2.783,2.934v3.749h-1.468V19.361z M172.014,17.337h-0.338
			c-0.898,0-2.445,0.068-2.445,1.004c0,0.598,0.61,0.855,1.14,0.855c1.114,0,1.644-0.584,1.644-1.494V17.337z"/>
		<path fill="#008066" d="M175.049,13.738h1.551v1.046h0.026c0.298-0.652,0.91-1.209,1.995-1.209c1.752,0,2.377,1.236,2.377,2.567
			v4.116h-1.629v-3.301c0-0.719-0.054-1.915-1.195-1.915c-1.072,0-1.494,0.788-1.494,1.657v3.559h-1.631V13.738z"/>
		<path fill="#008066" d="M191.979,12.896c-0.706-0.747-1.357-0.95-2.023-0.95c-1.983,0-3.301,1.521-3.301,3.436
			c0,2.051,1.317,3.572,3.301,3.572c0.773,0,1.521-0.354,2.16-1.168l1.412,1.006c-0.869,1.195-2.174,1.711-3.586,1.711
			c-2.961,0-5.08-2.01-5.08-5.012c0-3.083,2.119-5.094,5.08-5.094c1.305,0,2.418,0.422,3.368,1.521L191.979,12.896z"/>
		<path fill="#008066" d="M197.473,13.575c1.969,0,3.543,1.372,3.543,3.423c0,2.051-1.574,3.422-3.543,3.422
			c-1.971,0-3.545-1.371-3.545-3.422C193.928,14.947,195.502,13.575,197.473,13.575z M197.473,18.953
			c1.194,0,1.915-0.938,1.915-1.955c0-1.02-0.721-1.956-1.915-1.956c-1.196,0-1.916,0.937-1.916,1.956
			C195.557,18.016,196.276,18.953,197.473,18.953z"/>
		<path fill="#008066" d="M202.016,9.99h1.631v10.268h-1.631V9.99z"/>
		<path fill="#008066" d="M205.271,9.99h1.629v10.268h-1.629V9.99z"/>
		<path fill="#008066" d="M209.806,17.568c0.107,0.965,0.843,1.549,1.751,1.549c0.816,0,1.347-0.381,1.753-0.883l1.168,0.883
			c-0.762,0.936-1.724,1.303-2.757,1.303c-1.97,0-3.546-1.371-3.546-3.422c0-2.051,1.576-3.423,3.546-3.423
			c1.82,0,3.057,1.276,3.057,3.545v0.448H209.806z M213.146,16.346c-0.013-0.95-0.639-1.548-1.656-1.548
			c-0.966,0-1.562,0.612-1.685,1.548H213.146z"/>
		<path fill="#008066" d="M222.458,13.738v5.936c0,2.35-1.141,3.842-3.679,3.842c-1.211,0-2.311-0.258-3.233-1.072l0.976-1.33
			c0.653,0.598,1.331,0.938,2.242,0.938c1.576,0,2.064-0.896,2.064-2.188v-0.475h-0.027c-0.474,0.639-1.317,0.951-2.133,0.951
			c-1.956,0-3.245-1.496-3.245-3.342c0-1.929,1.208-3.423,3.219-3.423c0.909,0,1.766,0.354,2.242,1.141h0.025v-0.978H222.458z
			 M217.051,16.984c0,1.031,0.817,1.889,1.917,1.889c1.208,0,1.941-0.83,1.941-1.917c0-1.127-0.746-1.915-1.929-1.915
			C217.84,15.042,217.051,15.83,217.051,16.984z"/>
		<path fill="#008066" d="M225.057,17.568c0.111,0.965,0.844,1.549,1.754,1.549c0.815,0,1.345-0.381,1.752-0.883l1.168,0.883
			c-0.76,0.936-1.726,1.303-2.757,1.303c-1.97,0-3.545-1.371-3.545-3.422c0-2.051,1.575-3.423,3.545-3.423
			c1.82,0,3.056,1.276,3.056,3.545v0.448H225.057z M228.399,16.346c-0.014-0.95-0.638-1.548-1.656-1.548
			c-0.965,0-1.562,0.612-1.687,1.548H228.399z"/>
		<path fill="#008066" d="M237.693,13.575c1.971,0,3.546,1.372,3.546,3.423c0,2.051-1.575,3.422-3.546,3.422
			c-1.968,0-3.542-1.371-3.542-3.422C234.151,14.947,235.726,13.575,237.693,13.575z M237.693,18.953
			c1.197,0,1.916-0.938,1.916-1.955c0-1.02-0.719-1.956-1.916-1.956c-1.193,0-1.914,0.937-1.914,1.956
			C235.779,18.016,236.5,18.953,237.693,18.953z"/>
		<path fill="#008066" d="M242.522,15.124h-1.343v-1.385h1.343v-0.923c0-1.807,0.408-2.988,2.432-2.988
			c0.354,0,0.693,0.027,1.032,0.095l-0.107,1.385c-0.231-0.054-0.449-0.095-0.681-0.095c-0.909,0-1.045,0.625-1.045,1.345v1.181
			h1.508v1.385h-1.508v5.134h-1.631V15.124z"/>
		<path fill="#008066" d="M250.34,10.642h3.231c1.861,0,3.545,0.652,3.545,2.784c0,2.418-1.806,2.853-3.843,2.853h-1.222v3.979
			h-1.712V10.642z M253.083,14.812c0.978,0,2.241-0.055,2.241-1.358c0-1.182-1.128-1.345-2.051-1.345h-1.222v2.703H253.083z"/>
		<path fill="#008066" d="M259.57,14.648h0.025c0.258-0.543,0.911-1.073,1.914-1.073c1.754,0,2.379,1.236,2.379,2.567v4.116h-1.63
			v-3.301c0-0.719-0.055-1.915-1.196-1.915c-1.071,0-1.492,0.788-1.492,1.657v3.559h-1.633V9.99h1.633V14.648z"/>
		<path fill="#008066" d="M264.304,13.738h1.794l1.818,4.523h0.028l1.629-4.523h1.697l-3.083,7.918
			c-0.476,1.223-1.045,1.859-2.485,1.859c-0.421,0-0.843-0.053-1.249-0.162l0.203-1.467c0.259,0.096,0.545,0.164,0.83,0.164
			c0.802,0,1.018-0.285,1.289-0.965l0.312-0.775L264.304,13.738z"/>
		<path fill="#008066" d="M275.164,15.544c-0.312-0.435-0.721-0.666-1.276-0.666c-0.437,0-0.952,0.204-0.952,0.693
			c0,1.167,3.52,0.217,3.52,2.756c0,1.549-1.481,2.092-2.813,2.092c-1.004,0-1.874-0.258-2.539-1.004l1.087-1.02
			c0.421,0.461,0.855,0.801,1.548,0.801c0.476,0,1.087-0.23,1.087-0.746c0-1.345-3.518-0.285-3.518-2.771
			c0-1.453,1.304-2.105,2.621-2.105c0.871,0,1.793,0.272,2.323,0.991L275.164,15.544z"/>
		<path fill="#008066" d="M278.27,10.546c0.597,0,1.059,0.421,1.059,0.978c0,0.558-0.462,0.978-1.059,0.978
			s-1.032-0.461-1.032-0.978C277.237,11.008,277.673,10.546,278.27,10.546z M277.468,13.738h1.628v6.52h-1.628V13.738z"/>
		<path fill="#008066" d="M284.88,15.694c-0.379-0.394-0.801-0.652-1.235-0.652c-1.195,0-1.916,0.937-1.916,1.956
			c0,1.018,0.721,1.955,1.916,1.955c0.503,0,0.965-0.217,1.265-0.611l1.085,1.17c-0.664,0.664-1.779,0.908-2.35,0.908
			c-1.969,0-3.545-1.371-3.545-3.422c0-2.051,1.576-3.423,3.545-3.423c0.828,0,1.738,0.298,2.362,0.991L284.88,15.694z"/>
		<path fill="#008066" d="M287.253,10.546c0.598,0,1.061,0.421,1.061,0.978c0,0.558-0.463,0.978-1.061,0.978
			c-0.597,0-1.032-0.461-1.032-0.978C286.221,11.008,286.656,10.546,287.253,10.546z M286.451,13.738h1.631v6.52h-1.631V13.738z"/>
		<path fill="#008066" d="M293.484,19.361h-0.042c-0.461,0.732-1.223,1.059-2.091,1.059c-1.209,0-2.378-0.664-2.378-1.955
			c0-2.119,2.474-2.268,4.103-2.268h0.408V16.02c0-0.801-0.625-1.223-1.495-1.223c-0.68,0-1.303,0.272-1.739,0.679l-0.854-0.855
			c0.72-0.733,1.739-1.046,2.771-1.046c2.782,0,2.782,2.01,2.782,2.934v3.749h-1.465V19.361z M293.389,17.337h-0.34
			c-0.896,0-2.443,0.068-2.443,1.004c0,0.598,0.611,0.855,1.141,0.855c1.113,0,1.643-0.584,1.643-1.494V17.337z"/>
		<path fill="#008066" d="M296.427,13.738h1.547v1.046h0.027c0.3-0.652,0.911-1.209,1.998-1.209c1.751,0,2.374,1.236,2.374,2.567
			v4.116h-1.628v-3.301c0-0.719-0.055-1.915-1.197-1.915c-1.072,0-1.493,0.788-1.493,1.657v3.559h-1.628V13.738z"/>
		<path fill="#008066" d="M307.15,15.544c-0.313-0.435-0.72-0.666-1.276-0.666c-0.436,0-0.951,0.204-0.951,0.693
			c0,1.167,3.517,0.217,3.517,2.756c0,1.549-1.479,2.092-2.811,2.092c-1.006,0-1.874-0.258-2.54-1.004l1.087-1.02
			c0.421,0.461,0.856,0.801,1.549,0.801c0.475,0,1.087-0.23,1.087-0.746c0-1.345-3.519-0.285-3.519-2.771
			c0-1.453,1.304-2.105,2.622-2.105c0.868,0,1.792,0.272,2.321,0.991L307.15,15.544z"/>
	</g>
	<g>
		<path fill="#008066" d="M125.167,26.779h0.954v6.139h3.228v0.893h-4.182V26.779z"/>
		<path fill="#008066" d="M130.687,31.787c0,0.822,0.765,1.369,1.589,1.369c0.546,0,0.943-0.279,1.291-0.705l0.676,0.516
			c-0.497,0.645-1.182,0.963-2.086,0.963c-1.49,0-2.424-1.072-2.424-2.471c0-1.412,1.023-2.475,2.434-2.475
			c1.659,0,2.294,1.271,2.294,2.482v0.32H130.687z M133.507,31.068c-0.02-0.783-0.457-1.369-1.361-1.369
			c-0.883,0-1.46,0.744-1.46,1.369H133.507z"/>
		<path fill="#008066" d="M135.472,29.68c0.497-0.467,1.211-0.695,1.868-0.695c1.39,0,1.966,0.756,1.966,1.568v2.404
			c0,0.33,0.01,0.605,0.04,0.854h-0.794c-0.021-0.238-0.03-0.475-0.03-0.715h-0.02c-0.397,0.605-0.933,0.834-1.649,0.834
			c-0.874,0-1.628-0.496-1.628-1.41c0-1.211,1.162-1.629,2.592-1.629h0.656v-0.197c0-0.488-0.357-0.994-1.123-0.994
			c-0.686,0-1.013,0.289-1.341,0.537L135.472,29.68z M137.994,31.549c-0.844,0-1.877,0.148-1.877,0.902
			c0,0.535,0.398,0.764,1.013,0.764c0.993,0,1.341-0.734,1.341-1.369v-0.297H137.994z"/>
		<path fill="#008066" d="M145.241,33.811h-0.894v-0.674h-0.021c-0.347,0.508-1.003,0.793-1.639,0.793
			c-1.46,0-2.394-1.082-2.394-2.471c0-1.412,0.943-2.475,2.394-2.475c0.676,0,1.321,0.309,1.639,0.795h0.021v-3.477h0.894V33.811z
			 M144.348,31.459c0-0.955-0.596-1.641-1.55-1.641s-1.55,0.686-1.55,1.641c0,0.953,0.596,1.637,1.55,1.637
			S144.348,32.412,144.348,31.459z"/>
		<path fill="#008066" d="M147.025,26.76c0.358,0,0.656,0.297,0.656,0.654s-0.298,0.656-0.656,0.656
			c-0.357,0-0.655-0.299-0.655-0.656S146.668,26.76,147.025,26.76z M146.579,29.104h0.894v4.707h-0.894V29.104z"/>
		<path fill="#008066" d="M148.812,29.104h0.894v0.727h0.02c0.229-0.498,0.825-0.846,1.55-0.846c0.914,0,1.708,0.545,1.708,1.799
			v3.027h-0.894v-2.781c0-0.883-0.507-1.211-1.072-1.211c-0.746,0-1.312,0.477-1.312,1.57v2.422h-0.894V29.104z"/>
		<path fill="#008066" d="M158.771,33.771c0,1.422-1.033,2.424-2.573,2.424c-0.894,0-1.639-0.229-2.304-0.844l0.605-0.754
			c0.467,0.496,0.993,0.764,1.678,0.764c1.332,0,1.699-0.836,1.699-1.627v-0.697h-0.029c-0.337,0.566-0.983,0.834-1.629,0.834
			c-1.38,0-2.404-1.043-2.394-2.412c0-1.393,0.934-2.475,2.394-2.475c0.635,0,1.292,0.289,1.639,0.795h0.02v-0.676h0.895V33.771z
			 M154.778,31.459c0,0.953,0.596,1.578,1.55,1.578c0.954,0,1.549-0.625,1.549-1.578c0-0.955-0.595-1.641-1.549-1.641
			C155.374,29.818,154.778,30.504,154.778,31.459z"/>
		<path fill="#008066" d="M162.75,26.779h0.953v7.031h-0.953V26.779z"/>
		<path fill="#008066" d="M165.201,29.104h0.894v0.727h0.021c0.229-0.498,0.824-0.846,1.549-0.846c0.914,0,1.709,0.545,1.709,1.799
			v3.027h-0.895v-2.781c0-0.883-0.506-1.211-1.072-1.211c-0.745,0-1.312,0.477-1.312,1.57v2.422h-0.894V29.104z"/>
		<path fill="#008066" d="M172.966,29.879h-1.28v2.135c0,0.527,0,1.082,0.675,1.082c0.208,0,0.456-0.029,0.636-0.139v0.814
			c-0.209,0.121-0.626,0.158-0.805,0.158c-1.381,0-1.401-0.842-1.401-1.598v-2.453h-1.032v-0.775h1.032v-1.32h0.896v1.32h1.28
			V29.879z"/>
		<path fill="#008066" d="M174.712,31.787c0,0.822,0.765,1.369,1.589,1.369c0.547,0,0.944-0.279,1.291-0.705l0.676,0.516
			c-0.496,0.645-1.182,0.963-2.085,0.963c-1.491,0-2.424-1.072-2.424-2.471c0-1.412,1.022-2.475,2.434-2.475
			c1.657,0,2.294,1.271,2.294,2.482v0.32H174.712z M177.533,31.068c-0.02-0.783-0.457-1.369-1.361-1.369
			c-0.883,0-1.46,0.744-1.46,1.369H177.533z"/>
		<path fill="#008066" d="M179.278,29.104h0.893v0.727h0.021c0.229-0.498,0.824-0.846,1.411-0.846c0.14,0,0.278,0.021,0.397,0.061
			l-0.04,0.963c-0.149-0.041-0.298-0.07-0.437-0.07c-0.875,0-1.353,0.477-1.353,1.51v2.363h-0.893V29.104z"/>
		<path fill="#008066" d="M182.852,29.104h0.895v0.727h0.02c0.229-0.498,0.824-0.846,1.549-0.846c0.914,0,1.709,0.545,1.709,1.799
			v3.027h-0.895v-2.781c0-0.883-0.506-1.211-1.072-1.211c-0.745,0-1.311,0.477-1.311,1.57v2.422h-0.895V29.104z"/>
		<path fill="#008066" d="M188.113,29.68c0.497-0.467,1.212-0.695,1.867-0.695c1.391,0,1.967,0.756,1.967,1.568v2.404
			c0,0.33,0.01,0.605,0.04,0.854h-0.794c-0.021-0.238-0.03-0.475-0.03-0.715h-0.021c-0.396,0.605-0.934,0.834-1.649,0.834
			c-0.873,0-1.628-0.496-1.628-1.41c0-1.211,1.162-1.629,2.592-1.629h0.656v-0.197c0-0.488-0.357-0.994-1.123-0.994
			c-0.685,0-1.013,0.289-1.34,0.537L188.113,29.68z M190.637,31.549c-0.846,0-1.878,0.148-1.878,0.902
			c0,0.535,0.397,0.764,1.013,0.764c0.994,0,1.342-0.734,1.342-1.369v-0.297H190.637z"/>
		<path fill="#008066" d="M193.234,26.303h0.895v7.508h-0.895V26.303z"/>
		<path fill="#008066" d="M197.91,26.779h1.42l2.236,5.324h0.038l2.216-5.324h1.42v7.031h-0.953v-5.779h-0.019l-2.376,5.779h-0.634
			l-2.376-5.779h-0.019v5.779h-0.954V26.779z"/>
		<path fill="#008066" d="M207.144,31.787c0,0.822,0.764,1.369,1.587,1.369c0.548,0,0.944-0.279,1.292-0.705l0.677,0.516
			c-0.497,0.645-1.183,0.963-2.086,0.963c-1.491,0-2.426-1.072-2.426-2.471c0-1.412,1.024-2.475,2.436-2.475
			c1.658,0,2.294,1.271,2.294,2.482v0.32H207.144z M209.964,31.068c-0.019-0.783-0.457-1.369-1.36-1.369
			c-0.885,0-1.46,0.744-1.46,1.369H209.964z"/>
		<path fill="#008066" d="M216.426,33.811h-0.894v-0.674h-0.02c-0.347,0.508-1.005,0.793-1.638,0.793
			c-1.46,0-2.395-1.082-2.395-2.471c0-1.412,0.944-2.475,2.395-2.475c0.674,0,1.319,0.309,1.638,0.795h0.02v-3.477h0.894V33.811z
			 M215.532,31.459c0-0.955-0.596-1.641-1.549-1.641c-0.954,0-1.551,0.686-1.551,1.641c0,0.953,0.597,1.637,1.551,1.637
			C214.937,33.096,215.532,32.412,215.532,31.459z"/>
		<path fill="#008066" d="M218.21,26.76c0.357,0,0.656,0.297,0.656,0.654s-0.299,0.656-0.656,0.656s-0.654-0.299-0.654-0.656
			S217.853,26.76,218.21,26.76z M217.764,29.104h0.894v4.707h-0.894V29.104z"/>
		<path fill="#008066" d="M223.364,30.354c-0.327-0.346-0.677-0.523-1.172-0.523c-0.975,0-1.471,0.783-1.471,1.668
			c0,0.883,0.597,1.598,1.52,1.598c0.498,0,0.844-0.178,1.143-0.525l0.636,0.635c-0.467,0.516-1.103,0.725-1.788,0.725
			c-1.448,0-2.464-1.002-2.464-2.453c0-1.449,0.994-2.482,2.464-2.482c0.686,0,1.341,0.238,1.809,0.746L223.364,30.354z"/>
		<path fill="#008066" d="M225.219,26.76c0.357,0,0.655,0.297,0.655,0.654s-0.298,0.656-0.655,0.656
			c-0.356,0-0.656-0.299-0.656-0.656S224.862,26.76,225.219,26.76z M224.772,29.104h0.894v4.707h-0.894V29.104z"/>
		<path fill="#008066" d="M227.003,29.104h0.895v0.727h0.021c0.229-0.498,0.824-0.846,1.551-0.846c0.914,0,1.707,0.545,1.707,1.799
			v3.027h-0.894v-2.781c0-0.883-0.506-1.211-1.073-1.211c-0.743,0-1.312,0.477-1.312,1.57v2.422h-0.895V29.104z"/>
		<path fill="#008066" d="M233.119,31.787c0,0.822,0.767,1.369,1.591,1.369c0.545,0,0.942-0.279,1.291-0.705l0.675,0.516
			c-0.495,0.645-1.182,0.963-2.085,0.963c-1.489,0-2.424-1.072-2.424-2.471c0-1.412,1.023-2.475,2.434-2.475
			c1.657,0,2.295,1.271,2.295,2.482v0.32H233.119z M235.941,31.068c-0.021-0.783-0.457-1.369-1.36-1.369
			c-0.885,0-1.462,0.744-1.462,1.369H235.941z"/>
		<path fill="#008066" d="M237.904,35.123h-0.814l0.685-2.443h0.964L237.904,35.123z"/>
		<path fill="#008066" d="M241.289,26.779h0.954v7.031h-0.954V26.779z"/>
		<path fill="#008066" d="M243.742,29.104h0.834v0.734h0.02c0.09-0.277,0.667-0.854,1.51-0.854c0.695,0,1.172,0.297,1.472,0.873
			c0.307-0.576,0.922-0.873,1.489-0.873c1.45,0,1.786,1.033,1.786,2.084v2.742h-0.894v-2.619c0-0.715-0.148-1.373-1.013-1.373
			c-0.863,0-1.202,0.586-1.202,1.422v2.57h-0.895V31.35c0-0.895-0.127-1.531-0.99-1.531c-0.646,0-1.224,0.486-1.224,1.551v2.441
			h-0.894V29.104z"/>
		<path fill="#008066" d="M252.12,29.104h0.894v0.676h0.021c0.346-0.506,1.003-0.795,1.638-0.795c1.461,0,2.395,1.082,2.395,2.475
			c0,1.408-0.944,2.471-2.395,2.471c-0.674,0-1.32-0.307-1.638-0.793h-0.021v3.477h-0.894V29.104z M253.014,31.459
			c0,0.953,0.596,1.637,1.549,1.637c0.954,0,1.551-0.684,1.551-1.637c0-0.955-0.597-1.641-1.551-1.641
			C253.609,29.818,253.014,30.504,253.014,31.459z"/>
		<path fill="#008066" d="M258.104,29.104h0.895v0.727h0.021c0.228-0.498,0.824-0.846,1.41-0.846c0.14,0,0.279,0.021,0.397,0.061
			l-0.04,0.963c-0.149-0.041-0.298-0.07-0.437-0.07c-0.874,0-1.352,0.477-1.352,1.51v2.363h-0.895V29.104z"/>
		<path fill="#008066" d="M263.596,28.984c1.4,0,2.504,1.102,2.504,2.475c0,1.369-1.104,2.471-2.504,2.471
			c-1.399,0-2.503-1.102-2.503-2.471C261.093,30.086,262.196,28.984,263.596,28.984z M263.596,33.096c0.953,0,1.55-0.684,1.55-1.637
			c0-0.955-0.597-1.641-1.55-1.641c-0.952,0-1.549,0.686-1.549,1.641C262.047,32.412,262.644,33.096,263.596,33.096z"/>
		<path fill="#008066" d="M266.374,29.104h1.033l1.411,3.605l1.35-3.605h0.954l-1.848,4.707h-0.984L266.374,29.104z"/>
		<path fill="#008066" d="M272.34,26.76c0.357,0,0.656,0.297,0.656,0.654s-0.299,0.656-0.656,0.656s-0.655-0.299-0.655-0.656
			S271.982,26.76,272.34,26.76z M271.894,29.104h0.894v4.707h-0.894V29.104z"/>
		<path fill="#008066" d="M274.127,29.104h0.893v0.727h0.021c0.228-0.498,0.824-0.846,1.55-0.846c0.914,0,1.708,0.545,1.708,1.799
			v3.027h-0.894v-2.781c0-0.883-0.508-1.211-1.072-1.211c-0.745,0-1.312,0.477-1.312,1.57v2.422h-0.893V29.104z"/>
		<path fill="#008066" d="M284.088,33.771c0,1.422-1.034,2.424-2.574,2.424c-0.894,0-1.64-0.229-2.305-0.844l0.605-0.754
			c0.467,0.496,0.994,0.764,1.68,0.764c1.33,0,1.699-0.836,1.699-1.627v-0.697h-0.03c-0.339,0.566-0.985,0.834-1.631,0.834
			c-1.379,0-2.403-1.043-2.392-2.412c0-1.393,0.933-2.475,2.392-2.475c0.638,0,1.292,0.289,1.641,0.795h0.021v-0.676h0.895V33.771z
			 M280.095,31.459c0,0.953,0.595,1.578,1.548,1.578c0.954,0,1.551-0.625,1.551-1.578c0-0.955-0.597-1.641-1.551-1.641
			C280.689,29.818,280.095,30.504,280.095,31.459z"/>
		<path fill="#008066" d="M287.668,26.779h0.953v6.139h3.227v0.893h-4.18V26.779z"/>
		<path fill="#008066" d="M293.026,26.76c0.358,0,0.657,0.297,0.657,0.654s-0.299,0.656-0.657,0.656
			c-0.357,0-0.654-0.299-0.654-0.656S292.669,26.76,293.026,26.76z M292.581,29.104h0.893v4.707h-0.893V29.104z"/>
		<path fill="#008066" d="M294.247,29.104h1.033l1.411,3.605l1.349-3.605h0.955l-1.848,4.707h-0.983L294.247,29.104z"/>
		<path fill="#008066" d="M300.373,31.787c0,0.822,0.764,1.369,1.589,1.369c0.545,0,0.942-0.279,1.291-0.705l0.675,0.516
			c-0.496,0.645-1.183,0.963-2.085,0.963c-1.49,0-2.424-1.072-2.424-2.471c0-1.412,1.023-2.475,2.433-2.475
			c1.66,0,2.295,1.271,2.295,2.482v0.32H300.373z M303.192,31.068c-0.019-0.783-0.455-1.369-1.36-1.369
			c-0.883,0-1.459,0.744-1.459,1.369H303.192z"/>
		<path fill="#008066" d="M307.642,30.285c-0.209-0.258-0.519-0.467-0.965-0.467c-0.417,0-0.784,0.189-0.784,0.527
			c0,0.564,0.805,0.646,1.201,0.736c0.774,0.186,1.371,0.484,1.371,1.369c0,1.062-0.974,1.479-1.908,1.479
			c-0.773,0-1.35-0.195-1.815-0.834l0.674-0.555c0.288,0.287,0.626,0.555,1.142,0.555c0.458,0,0.954-0.188,0.954-0.596
			c0-0.535-0.745-0.635-1.132-0.725c-0.765-0.188-1.44-0.438-1.44-1.34c0-0.984,0.903-1.451,1.789-1.451
			c0.625,0,1.271,0.219,1.608,0.775L307.642,30.285z"/>
	</g>
	<g>
		<g>
			<path fill="#008066" d="M49.276,0.842h5.097l14.265,33.111h-6.734l-3.088-7.576H44.46l-2.994,7.576h-6.595L49.276,0.842z
				 M56.759,21.326L51.662,7.857l-5.191,13.469H56.759z"/>
			<path fill="#008066" d="M92.001,8.606c-2.434-2.572-4.678-3.274-6.969-3.274c-6.828,0-11.364,5.238-11.364,11.832
				c0,7.063,4.536,12.299,11.364,12.299c2.665,0,5.238-1.215,7.437-4.02l4.864,3.461c-2.993,4.115-7.485,5.893-12.348,5.893
				c-10.197,0-17.491-6.922-17.491-17.259C67.494,6.922,74.788,0,84.985,0c4.491,0,8.326,1.45,11.6,5.238L92.001,8.606z"/>
			<path fill="#008066" d="M100.198,0.842h11.13c6.407,0,12.208,2.245,12.208,9.586c0,8.325-6.219,9.821-13.237,9.821h-4.208v13.703
				h-5.892V0.842z M109.646,15.199c3.367,0,7.716-0.186,7.716-4.675c0-4.069-3.881-4.632-7.063-4.632h-4.208v9.308H109.646z"/>
		</g>
		<g>
			<path fill="#008066" d="M19.203,22.014c-1.593,0.582-4.499,1.436-8.442,2.697c-2.14,0.684-2.461,0.799-3.424,1.18
				c-0.737,0.344-0.896,0.479-1.431,1.041c-0.996,1.062-0.991,3.818,0.35,4.996c0.6,0.529,2.121,1.16,3.325,1.297h20.54
				c1.8,0,3.267-1.465,3.267-3.266V18.15c-0.299,0.375-0.618,0.74-0.966,1.088C28.825,22.834,23.583,23.768,19.203,22.014z"/>
			<path fill="#008066" d="M15.37,2.188c0.217-0.215,0.443-0.42,0.67-0.618H4.998c-1.804,0-3.27,1.464-3.27,3.267v7.448
				c0.37-0.154,0.723-0.267,1.004-0.331c-0.194-0.24-0.314-0.538-0.314-0.869c0-0.773,0.634-1.399,1.418-1.399
				c0.783,0,1.417,0.626,1.417,1.399c0,0.331-0.12,0.629-0.315,0.869c0.907,0.207,2.548,0.917,3.179,1.896
				c0.892,1.386,1.719,0.273,2.192,1.19c0.163,0.323,0.284,0.457,0.586,1.094c0.152,0.323-0.129,0.708-0.435,0.708
				c-0.305,0-6.619,0-6.619,0h-0.01c0,0-0.936,0-2.103,0V18.1c4.476,0.004,8.94,0.008,12.362-0.027
				C10.566,13.344,11.004,6.555,15.37,2.188z"/>
			<path fill="#54B848" d="M30.119,1.57H16.04c-0.227,0.198-0.453,0.402-0.67,0.618c-4.366,4.367-4.804,11.156-1.28,15.885
				c3.387-0.035,5.756-0.105,6.11-0.247c0.74-0.292,1.372-0.705,1.878-1.363c-2.259-0.794-3.883-2.942-3.883-5.473
				c0-3.209,2.6-5.809,5.808-5.809c3.208,0,5.808,2.6,5.808,5.809c0,2.991-2.264,5.455-5.174,5.771
				c-0.474,0.957-1.117,1.851-1.869,2.806c-0.842,0.895-1.698,1.748-3.396,2.387c-0.053,0.02-0.111,0.039-0.167,0.061
				c4.38,1.754,9.622,0.82,13.217-2.775c0.348-0.348,0.667-0.713,0.966-1.088V4.837C33.386,3.034,31.919,1.57,30.119,1.57z"/>
			<path fill="#A0CF67" d="M29.81,10.99c0-3.209-2.599-5.809-5.808-5.809c-3.208,0-5.808,2.6-5.808,5.809
				c0,2.531,1.624,4.678,3.883,5.473c0.173-0.225,0.332-0.476,0.476-0.762c0.171-0.34,0.135-0.236,0.307-0.589
				c-1.809-0.501-3.139-2.155-3.139-4.122c0-2.366,1.918-4.284,4.281-4.284c2.365,0,4.283,1.918,4.283,4.284
				c0,2.052-1.446,3.766-3.377,4.182c0.121-0.026,0.243-0.057,0.362-0.093h0.015c0,0-0.049,0.182-0.221,0.667
				c-0.122,0.349-0.265,0.685-0.428,1.015C27.545,16.445,29.81,13.981,29.81,10.99z"/>
			<g>
				<path fill="#FFC325" d="M30.119,0.842H4.998C2.794,0.842,1,2.633,1,4.837v25.122c0,2.203,1.794,3.994,3.998,3.994h25.122
					c2.203,0,3.995-1.791,3.995-3.994V4.837C34.114,2.633,32.322,0.842,30.119,0.842z M33.386,18.15v11.809
					c0,1.801-1.467,3.266-3.267,3.266H9.58c-1.204-0.137-2.725-0.768-3.325-1.297c-1.34-1.178-1.346-3.934-0.35-4.996
					c0.536-0.562,0.694-0.697,1.431-1.041c0.963-0.381,1.285-0.496,3.424-1.18c3.943-1.262,6.85-2.115,8.442-2.697
					c0.057-0.021,0.115-0.041,0.167-0.061c1.698-0.639,2.554-1.492,3.396-2.387c0.752-0.955,1.396-1.849,1.869-2.806
					c0.164-0.33,0.307-0.666,0.428-1.015c0.172-0.485,0.221-0.667,0.221-0.667H25.27c-0.119,0.036-0.241,0.067-0.362,0.093
					c-0.04,0.009-0.079,0.015-0.116,0.022c-0.094,0.016-0.186,0.03-0.279,0.043c-0.04,0.003-0.077,0.01-0.118,0.012
					c-0.129,0.012-0.26,0.021-0.393,0.021c-0.124,0-0.247-0.008-0.369-0.018c-0.051-0.005-0.104-0.011-0.156-0.017
					c-0.057-0.008-0.114-0.018-0.171-0.027c-0.151-0.025-0.302-0.056-0.447-0.097c-0.171,0.353-0.135,0.249-0.307,0.589
					c-0.144,0.286-0.302,0.538-0.476,0.762c-0.506,0.658-1.138,1.071-1.878,1.363c-0.354,0.141-2.723,0.211-6.11,0.247
					c-3.422,0.035-7.886,0.031-12.362,0.027v-1.257c1.167,0,2.103,0,2.103,0h0.01c0,0,6.314,0,6.619,0
					c0.306,0,0.587-0.385,0.435-0.708c-0.303-0.637-0.423-0.771-0.586-1.094c-0.473-0.917-1.3,0.195-2.192-1.19
					c-0.631-0.979-2.272-1.69-3.179-1.896c0.195-0.24,0.315-0.538,0.315-0.869c0-0.773-0.634-1.399-1.417-1.399
					c-0.784,0-1.418,0.626-1.418,1.399c0,0.331,0.121,0.629,0.314,0.869c-0.281,0.063-0.634,0.176-1.004,0.331V4.837
					c0-1.803,1.466-3.267,3.27-3.267H16.04h14.079c1.8,0,3.267,1.464,3.267,3.267V18.15z"/>
			</g>
			<g>
				<polygon fill="#EE2A24" points="23.991,7.905 23.993,7.908 23.997,7.905 				"/>
				<polygon fill="#EE2A24" points="23.991,14.043 23.993,14.046 23.997,14.043 				"/>
				<g>
					<polygon fill="#E4E76D" points="24.005,10.161 24.007,10.163 24.009,10.161 					"/>
					<polygon fill="#E4E76D" points="23.991,14.043 23.993,14.046 23.997,14.043 					"/>
					<path fill="#E4E76D" d="M24.002,6.706c-2.363,0-4.281,1.918-4.281,4.284c0,1.966,1.331,3.621,3.139,4.122
						c0.145,0.041,0.295,0.071,0.447,0.097c0.057,0.009,0.114,0.019,0.171,0.027c0.051,0.005,0.105,0.012,0.156,0.017
						c0.122,0.01,0.245,0.018,0.369,0.018c0.132,0,0.263-0.008,0.393-0.021c0.042-0.002,0.079-0.009,0.118-0.012
						c0.093-0.013,0.185-0.027,0.279-0.043c0.038-0.008,0.077-0.014,0.116-0.022c1.931-0.416,3.377-2.13,3.377-4.182
						C28.285,8.624,26.367,6.706,24.002,6.706z M25.839,12.23c-0.065,0.763-0.79,1.819-1.719,1.819c-0.041,0-0.069,0-0.089,0
						c-0.015,0-0.028,0-0.034,0l-0.004-0.003l-0.002,0.003c-0.008,0-0.021,0-0.036,0c-0.021,0-0.048,0-0.09,0
						c-0.928,0-1.653-1.056-1.718-1.819c-0.06-0.689,0.064-1.353,0.516-2.265c0.543-1.103,1.328-2.055,1.328-2.055l0.002-0.002
						l0.004,0.002c0,0,0.784,0.952,1.327,2.055C25.774,10.877,25.899,11.541,25.839,12.23z"/>
				</g>
				<polygon fill="#FFC425" points="24.005,13.716 24.007,13.716 24.009,13.716 				"/>
				<polygon fill="#FFC425" points="24.005,10.161 24.007,10.163 24.009,10.161 				"/>
			</g>
			<g>
				<polygon fill="#EE2A24" points="23.991,7.905 23.993,7.908 23.997,7.905 				"/>
				<polygon fill="#EE2A24" points="23.991,14.043 23.993,14.046 23.997,14.043 				"/>
				<path fill="#EE2A24" d="M25.324,9.965c-0.543-1.103-1.327-2.055-1.327-2.055l-0.004-0.002L23.991,7.91
					c0,0-0.785,0.952-1.328,2.055c-0.451,0.912-0.575,1.576-0.516,2.265c0.064,0.763,0.79,1.819,1.718,1.819c0.042,0,0.069,0,0.09,0
					c0.015,0,0.028,0,0.036,0l0.002-0.003l-0.002-0.003h0.006l-0.004,0.003l0.004,0.003c0.006,0,0.019,0,0.034,0
					c0.021,0,0.049,0,0.089,0c0.929,0,1.654-1.056,1.719-1.819C25.899,11.541,25.774,10.877,25.324,9.965z M25.076,12.664
					c-0.038,0.441-0.458,1.052-0.995,1.052c-0.024,0-0.041,0-0.052,0c-0.009,0-0.017,0-0.02,0h-0.002h-0.002
					c-0.003,0-0.01,0-0.021,0c-0.01,0-0.026,0-0.05,0c-0.539,0-0.958-0.611-0.995-1.052c-0.036-0.398,0.036-0.784,0.298-1.311
					c0.313-0.637,0.769-1.189,0.769-1.189l0.002-0.001l-0.002-0.001h0.004l-0.002,0.001l0.002,0.001c0,0,0.454,0.552,0.769,1.189
					C25.039,11.88,25.11,12.266,25.076,12.664z"/>
				<polygon fill="#FFC425" points="24.005,13.716 24.007,13.716 24.009,13.716 				"/>
				<polygon fill="#FFC425" points="24.005,10.161 24.007,10.163 24.009,10.161 				"/>
				<path fill="#FFC425" d="M24.009,10.164l-0.002-0.001l-0.002,0.001c0,0-0.455,0.552-0.769,1.189
					c-0.262,0.527-0.334,0.913-0.298,1.311c0.036,0.441,0.456,1.052,0.995,1.052c0.024,0,0.041,0,0.05,0c0.011,0,0.018,0,0.021,0
					h0.002h-0.002h0.004h-0.002h0.002c0.003,0,0.011,0,0.02,0c0.012,0,0.028,0,0.052,0c0.537,0,0.957-0.611,0.995-1.052
					c0.034-0.398-0.038-0.784-0.298-1.311C24.463,10.716,24.009,10.164,24.009,10.164z"/>
			</g>
		</g>
	</g>
	<g>
		<path fill="#008066" d="M313.152,9.496c1.661,0,3.017,1.354,3.017,3.017c0,1.662-1.355,3.016-3.017,3.016
			c-1.663,0-3.018-1.354-3.018-3.016C310.135,10.851,311.489,9.496,313.152,9.496z M313.152,14.994c1.37,0,2.48-1.111,2.48-2.481
			c0-1.371-1.11-2.482-2.48-2.482c-1.371,0-2.48,1.111-2.48,2.482C310.672,13.883,311.781,14.994,313.152,14.994z M311.991,10.77
			h1.33c0.828,0,1.217,0.373,1.217,1.038c0,0.599-0.355,0.892-0.827,0.948l0.901,1.459h-0.666l-0.859-1.411h-0.462v1.411h-0.634
			V10.77z M312.625,12.269h0.462c0.39,0,0.819-0.024,0.819-0.486c0-0.462-0.43-0.487-0.819-0.479h-0.462V12.269z"/>
	</g>
</g>
</svg>
