<?xml version="1.0" encoding="utf-8"?>
<!-- Generator: Adobe Illustrator 21.0.2, SVG Export Plug-In . SVG Version: 6.00 Build 0)  -->
<svg version="1.1" id="Layer_1" xmlns="http://www.w3.org/2000/svg" xmlns:xlink="http://www.w3.org/1999/xlink" x="0px" y="0px"
	 viewBox="0 0 160 80" style="enable-background:new 0 0 160 80;" xml:space="preserve">
<style type="text/css">
	.st0{fill:#005DA9;}
	.st1{fill:#11B5E9;}
	.st2{fill:#94A0A9;}
</style>
<g>
	<g>
		<g>
			<g>
				<g>
					<g>
						<g>
							<path class="st0" d="M157.2,37.8c-1.8-1.2-2.4-2.7-3.4-4.9c-0.8-1.8-13.6-32.6-13.6-32.6h-3.6c-0.5,1.2-5.4,14.4-8.1,20.8
								c-0.9,2.1-2.7,6.3-5.5,12.1c-1.1,2.4-2.6,3.8-3.7,4.4V8c0,0-0.1-2.6,1.6-4c1.6-1.3,4.6-1.2,4.6-1.2l0-2.5l-15.4,0v2.6
								c0,0,3.5-0.1,4.9,1.2c1.4,1.4,1.2,4,1.2,4l0,19.8L96.4,0.3H82.4v2.5c2.9,0,5.8,0.7,5.8,4.6v26.1c0,0,0.1,2.8-1,3.7
								c-1.6,1.4-4.8,1.3-4.8,1.3l0,2.6H98l0-2.6c0,0-3.8,0.1-5.6-1.4c-1.2-1-1.1-3.5-1.1-3.5V9.9l23.2,31.1h17.8v-2.6
								c0,0-3.9,0.1-5-0.4c-0.6-0.3-0.9-0.7-1.1-1.3c-0.1-0.3-0.1-0.8,0-1.5c0.5-2.7,2.8-7.6,2.8-7.6h12.5c0,0,2.3,5.4,3.2,7.5
								c0.8,2,0.3,2.9-0.9,3.2c-1,0.2-4.2,0.2-4.2,0.2v2.6H160v-2.6C160,38.5,158.4,38.6,157.2,37.8z M130,24.6l5.1-12.2l5.1,12.2
								H130z"/>
							<path class="st0" d="M71.9,16.7c-2.6-0.8-9.2-2.8-11.7-5.2c-2.4-2.4-0.9-6.3,0.7-7.7c4.7-4.2,13.2-1.4,16.8,10.9H80V0.3h-2
								c0,0-1.3,2.1-2.1,2.5c-0.3,0.2-1.6-0.4-2.3-0.7C54.8-8.2,42.2,15.9,58.1,23.2c3.4,1.6,5.5,2.3,9.4,3.5c6.8,2,7.5,7.2,5.2,10
								c-3.6,4.4-14.7,5.7-20.2-10.6h-2.7l0,11.3l0,0l0,0c0,0-1.2-0.7-2-1.5c-3.6-3.1-10.2-12.7-11.6-14.6l0,0
								c11-2.1,12.1-12.2,7.1-17.5L36.2,10c0.1,1.3-0.1,2.8-0.5,4.5c-1.2,4.3-5.4,5-8.1,5c-0.8,0-1.9-0.1-1.9-0.1c0,0,0,0,0,0v0
								l-9.3,8.3l0,13.4h9.3v-19l0,0.1C31,29.1,35.7,36,39,41.1h10.8v0h2.9c0,0,0.6-0.8,1.3-1.6c0.8-0.9,2-0.3,2.6,0
								c3,1.4,5.8,2.1,9.2,2.2C84.5,42.3,88.4,21.5,71.9,16.7z"/>
						</g>
					</g>
					<g>
						<g>
							<path class="st0" d="M153.8-0.2c2.1,0,3.8,1.6,3.8,3.8c0,2.2-1.7,3.8-3.8,3.8c-2.1,0-3.8-1.6-3.8-3.8
								C149.9,1.5,151.7-0.2,153.8-0.2z M153.8,6.8c1.8,0,3.1-1.4,3.1-3.3c0-1.8-1.4-3.2-3.1-3.2c-1.8,0-3.1,1.4-3.1,3.2
								C150.6,5.5,152,6.8,153.8,6.8z M152.3,1.4h1.7c1.1,0,1.5,0.4,1.5,1.3c0,0.8-0.5,1.1-1.2,1.2l1.3,2h-0.7l-1.2-1.9H153v1.9
								h-0.7V1.4z M153,3.4h0.7c0.6,0,1.2,0,1.2-0.7c0-0.6-0.5-0.7-1-0.7H153V3.4z"/>
						</g>
					</g>
				</g>
				<g>
					<g>
						<g>
							<polyline class="st1" points="16.4,27.6 16.4,27.6 16.4,41.1 1.2,41.1 16.4,27.6 							"/>
						</g>
					</g>
				</g>
			</g>
			<g>
				<path class="st0" d="M25.7,6.2c0-2.6,3.6-3.4,5.4-3.2c1.1,0.1,3.1,1.4,4.3,3.8l5.6-5c-1.6-0.9-3.5-1.5-5.8-1.5
					c-8.9,0-24.2,0-24.2,0v2.6c0,0,0.5,0,1.1,0c1,0.1,2.4,0.2,3.4,1.3c0.4,0.4,0.9,1.5,0.9,2.9c0,1.4,0,9.3,0,16.5l9.3-8.2L25.7,6.2
					z"/>
			</g>
		</g>
	</g>
	<g>
		<g>
			<g>
				<g>
					<g>
						<g>
							<path class="st2" d="M22.9,63.7l-2.5-5h-2.2v5h-1.8V51.9H21c2.2,0,3.7,1.4,3.7,3.4c0,1.7-1,2.8-2.3,3.1l2.7,5.2H22.9z
								 M20.9,53.5h-2.6v3.7h2.6c1.2,0,2-0.7,2-1.8C22.9,54.2,22.1,53.5,20.9,53.5z"/>
							<path class="st2" d="M31.3,63.7V63c-0.6,0.6-1.2,0.9-2.2,0.9c-1,0-1.7-0.3-2.3-0.8c-0.4-0.4-0.7-1.1-0.7-1.8
								c0-1.4,1-2.4,2.9-2.4h2.2v-0.6c0-1.1-0.5-1.6-1.8-1.6c-0.9,0-1.4,0.2-1.8,0.8l-1.1-1c0.8-0.9,1.6-1.2,3-1.2
								c2.3,0,3.5,1,3.5,2.9v5.6H31.3z M31.3,60h-2c-1,0-1.5,0.4-1.5,1.2c0,0.8,0.5,1.2,1.5,1.2c0.6,0,1.1-0.1,1.6-0.5
								c0.2-0.2,0.4-0.6,0.4-1.2V60z"/>
							<path class="st2" d="M40.2,63.7v-0.9c-0.6,0.8-1.3,1-2.2,1c-0.8,0-1.6-0.3-2.1-0.7c-0.8-0.8-0.9-2.3-0.9-3.6
								c0-1.3,0.1-2.7,0.9-3.5c0.5-0.5,1.2-0.7,2-0.7c0.9,0,1.6,0.2,2.2,0.9v-4.2h1.7v11.8H40.2z M38.4,56.7c-1.5,0-1.8,1.3-1.8,2.8
								c0,1.5,0.2,2.8,1.8,2.8c1.5,0,1.7-1.3,1.7-2.8C40.1,58,39.9,56.7,38.4,56.7z"/>
							<path class="st2" d="M44.4,53.7v-1.8h1.8v1.8H44.4z M44.4,63.7v-8.4h1.7v8.4H44.4z"/>
							<path class="st2" d="M54.1,62.8c-0.5,0.6-1.4,1-2.5,1c-1.1,0-1.9-0.4-2.5-1c-0.8-0.8-1-1.9-1-3.3c0-1.4,0.2-2.5,1-3.3
								c0.5-0.6,1.4-1,2.5-1c1.1,0,2,0.4,2.5,1c0.8,0.8,1,1.9,1,3.3C55.1,60.9,54.9,62,54.1,62.8z M52.9,57.2
								c-0.3-0.3-0.7-0.5-1.2-0.5s-0.9,0.2-1.2,0.5c-0.5,0.5-0.6,1.4-0.6,2.3c0,0.9,0.1,1.8,0.6,2.3c0.3,0.3,0.7,0.5,1.2,0.5
								s0.9-0.2,1.2-0.5c0.5-0.5,0.6-1.4,0.6-2.3C53.5,58.6,53.4,57.7,52.9,57.2z"/>
							<path class="st2" d="M59.4,63.7c-1.6,0-2.3-1.1-2.3-2.3v-9.5h1.7v9.4c0,0.6,0.2,1,0.9,1h0.7v1.4H59.4z"/>
							<path class="st2" d="M67.6,62.8c-0.5,0.6-1.4,1-2.5,1c-1.1,0-2-0.4-2.5-1c-0.8-0.8-1-1.9-1-3.3c0-1.4,0.2-2.5,1-3.3
								c0.5-0.6,1.4-1,2.5-1c1.1,0,2,0.4,2.5,1c0.8,0.8,1,1.9,1,3.3C68.6,60.9,68.4,62,67.6,62.8z M66.3,57.2
								c-0.3-0.3-0.7-0.5-1.2-0.5c-0.5,0-0.9,0.2-1.2,0.5c-0.5,0.5-0.6,1.4-0.6,2.3c0,0.9,0.1,1.8,0.6,2.3c0.3,0.3,0.7,0.5,1.2,0.5
								c0.5,0,0.9-0.2,1.2-0.5c0.5-0.5,0.6-1.4,0.6-2.3C66.9,58.6,66.8,57.7,66.3,57.2z"/>
							<path class="st2" d="M73.5,67.2c-1.3,0-2.1-0.3-3-1.1l1.1-1.1c0.5,0.5,1,0.8,1.8,0.8c1.4,0,2-1,2-2.1v-1.1
								c-0.6,0.7-1.3,1-2.2,1c-0.8,0-1.5-0.3-2-0.7c-0.8-0.8-0.9-2-0.9-3.4c0-1.4,0.1-2.6,0.9-3.4c0.5-0.5,1.2-0.7,2-0.7
								c0.9,0,1.6,0.2,2.2,1v-0.9h1.6v8.3C77.1,65.7,75.8,67.2,73.5,67.2z M73.7,56.7c-1.5,0-1.7,1.3-1.7,2.6c0,1.3,0.2,2.6,1.7,2.6
								c1.5,0,1.7-1.3,1.7-2.6C75.4,58,75.2,56.7,73.7,56.7z"/>
							<path class="st2" d="M79.4,53.7v-1.8h1.8v1.8H79.4z M79.5,63.7v-8.4h1.7v8.4H79.5z"/>
							<path class="st2" d="M86.8,63.8c-1.9,0-3.7-1.2-3.7-4.3c0-3.1,1.9-4.3,3.7-4.3c1.2,0,2,0.3,2.8,1.2l-1.2,1.1
								c-0.5-0.6-0.9-0.8-1.6-0.8c-0.6,0-1.2,0.3-1.6,0.7c-0.4,0.5-0.5,1.1-0.5,2c0,1,0.1,1.6,0.5,2.1c0.4,0.5,0.9,0.7,1.6,0.7
								c0.7,0,1.1-0.2,1.6-0.8l1.2,1.1C88.8,63.5,88,63.8,86.8,63.8z"/>
							<path class="st2" d="M96.1,63.7V63c-0.6,0.6-1.2,0.9-2.2,0.9c-1,0-1.7-0.3-2.3-0.8c-0.4-0.4-0.7-1.1-0.7-1.8
								c0-1.4,1-2.4,2.9-2.4H96v-0.6c0-1.1-0.5-1.6-1.8-1.6c-0.9,0-1.4,0.2-1.8,0.8l-1.1-1c0.8-0.9,1.6-1.2,3-1.2
								c2.3,0,3.5,1,3.5,2.9v5.6H96.1z M96,60h-2c-1,0-1.5,0.4-1.5,1.2c0,0.8,0.5,1.2,1.5,1.2c0.6,0,1.1-0.1,1.6-0.5
								c0.3-0.2,0.4-0.6,0.4-1.2V60z"/>
							<path class="st2" d="M102.2,63.7c-1.6,0-2.3-1.1-2.3-2.3v-9.5h1.7v9.4c0,0.6,0.2,1,0.9,1h0.7v1.4H102.2z"/>
							<path class="st2" d="M112.3,63.8c-1.8,0-3-0.4-4.2-1.6l1.2-1.2c0.9,0.9,1.8,1.1,3,1.1c1.5,0,2.4-0.7,2.4-1.8
								c0-0.5-0.1-0.9-0.5-1.2c-0.3-0.3-0.6-0.4-1.3-0.5l-1.4-0.2c-1-0.1-1.7-0.5-2.2-0.9c-0.6-0.5-0.9-1.3-0.9-2.3
								c0-2.1,1.5-3.5,3.9-3.5c1.6,0,2.6,0.4,3.7,1.3l-1.1,1.1c-0.7-0.7-1.6-0.9-2.6-0.9c-1.4,0-2.1,0.8-2.1,1.8
								c0,0.4,0.1,0.8,0.4,1.1c0.3,0.3,0.8,0.5,1.3,0.5l1.3,0.2c1.1,0.2,1.7,0.4,2.2,0.9c0.6,0.6,1,1.4,1,2.4
								C116.5,62.5,114.7,63.8,112.3,63.8z"/>
							<path class="st2" d="M123.9,62.8c-0.5,0.6-1.4,1-2.5,1c-1.1,0-1.9-0.4-2.5-1c-0.8-0.8-1-1.9-1-3.3c0-1.4,0.2-2.5,1-3.3
								c0.5-0.6,1.4-1,2.5-1c1.1,0,2,0.4,2.5,1c0.8,0.8,1,1.9,1,3.3C124.9,60.9,124.7,62,123.9,62.8z M122.6,57.2
								c-0.3-0.3-0.7-0.5-1.2-0.5c-0.5,0-0.9,0.2-1.2,0.5c-0.5,0.5-0.6,1.4-0.6,2.3c0,0.9,0.1,1.8,0.6,2.3c0.3,0.3,0.7,0.5,1.2,0.5
								c0.5,0,0.9-0.2,1.2-0.5c0.5-0.5,0.6-1.4,0.6-2.3C123.2,58.6,123.1,57.7,122.6,57.2z"/>
							<path class="st2" d="M130.2,63.8c-1.9,0-3.7-1.2-3.7-4.3c0-3.1,1.9-4.3,3.7-4.3c1.2,0,2,0.3,2.8,1.2l-1.2,1.1
								c-0.5-0.6-0.9-0.8-1.6-0.8c-0.6,0-1.2,0.3-1.6,0.7c-0.4,0.5-0.5,1.1-0.5,2c0,1,0.1,1.6,0.5,2.1c0.4,0.5,0.9,0.7,1.6,0.7
								c0.7,0,1.1-0.2,1.6-0.8l1.2,1.1C132.2,63.5,131.4,63.8,130.2,63.8z"/>
							<path class="st2" d="M134.9,53.7v-1.8h1.8v1.8H134.9z M134.9,63.7v-8.4h1.7v8.4H134.9z"/>
							<path class="st2" d="M140.2,60c0,1.4,0.8,2.3,2.1,2.3c0.9,0,1.4-0.3,2-0.9l1.1,1c-0.9,0.9-1.7,1.3-3.1,1.3
								c-2.1,0-3.8-1.1-3.8-4.3c0-2.7,1.4-4.3,3.6-4.3c2.3,0,3.6,1.7,3.6,4V60H140.2z M143.8,57.7c-0.3-0.6-0.9-1.1-1.7-1.1
								c-0.8,0-1.4,0.4-1.7,1.1c-0.2,0.4-0.2,0.6-0.2,1.1h3.8C144,58.3,143.9,58.1,143.8,57.7z"/>
							<path class="st2" d="M150,63.7c-1.6,0-2.3-1.1-2.3-2.3v-4.6h-1v-1.3h1v-2.5h1.7v2.5h1.6v1.3h-1.6v4.5c0,0.6,0.3,1,0.9,1h0.7
								v1.4H150z"/>
							<path class="st2" d="M156.2,65.4c-0.2,0.5-0.4,0.8-0.6,1c-0.5,0.5-1.1,0.6-1.7,0.6h-0.7v-1.5h0.4c0.7,0,1-0.2,1.2-0.9
								l0.5-1.3l-2.9-8h1.8l2,5.9l2-5.9h1.8L156.2,65.4z"/>
							<path class="st2" d="M68.2,79.1c-0.5,0.5-1.1,0.7-1.9,0.7c-0.8,0-1.4-0.3-1.9-0.7c-0.7-0.7-0.8-1.6-0.8-2.6
								c0-1,0.1-1.9,0.8-2.6c0.4-0.4,1.1-0.7,1.9-0.7c0.8,0,1.4,0.3,1.9,0.7c0.7,0.7,0.8,1.6,0.8,2.6C69,77.5,68.8,78.4,68.2,79.1z
								 M67.5,74.5c-0.3-0.3-0.7-0.5-1.2-0.5c-0.5,0-0.9,0.2-1.2,0.5c-0.5,0.5-0.5,1.3-0.5,2c0,0.7,0.1,1.5,0.5,2
								c0.3,0.3,0.7,0.5,1.2,0.5c0.5,0,0.9-0.2,1.2-0.5c0.5-0.5,0.5-1.3,0.5-2C68,75.8,68,75,67.5,74.5z"/>
							<path class="st2" d="M71.8,74v5.7h-1V74h-0.8v-0.7h0.8v-1.2c0-1,0.5-1.7,1.7-1.7h0.7v0.8h-0.5c-0.6,0-0.9,0.4-0.9,1v1.2h1.4
								V74H71.8z"/>
							<path class="st2" d="M84.2,79.8l-5-7.6v7.6h-1v-9.4h1l5,7.5v-7.5h1v9.4H84.2z"/>
							<path class="st2" d="M91.3,79.1c-0.5,0.5-1.1,0.7-1.9,0.7c-0.8,0-1.4-0.3-1.9-0.7c-0.7-0.7-0.8-1.6-0.8-2.6
								c0-1,0.1-1.9,0.8-2.6c0.4-0.4,1.1-0.7,1.9-0.7c0.8,0,1.4,0.3,1.9,0.7c0.7,0.7,0.8,1.6,0.8,2.6C92.1,77.5,91.9,78.4,91.3,79.1
								z M90.6,74.5c-0.3-0.3-0.7-0.5-1.2-0.5c-0.5,0-0.9,0.2-1.2,0.5c-0.5,0.5-0.5,1.3-0.5,2c0,0.7,0.1,1.5,0.5,2
								c0.3,0.3,0.7,0.5,1.2,0.5c0.5,0,0.9-0.2,1.2-0.5c0.5-0.5,0.5-1.3,0.5-2C91.1,75.8,91.1,75,90.6,74.5z"/>
							<path class="st2" d="M97.2,74.5C96.8,74.1,96.5,74,96,74c-1,0-1.6,0.8-1.6,1.7v4h-1v-6.5h1v0.8c0.4-0.5,1.1-0.9,1.8-0.9
								c0.6,0,1.1,0.1,1.6,0.6L97.2,74.5z"/>
							<path class="st2" d="M101.3,79.8c-1.1,0-1.7-0.8-1.7-1.7v-4h-0.8v-0.7h0.8v-2h1v2h1.4V74h-1.4v4c0,0.6,0.3,1,0.9,1h0.5v0.8
								H101.3z"/>
							<path class="st2" d="M108,79.8v-4c0-1.1-0.6-1.7-1.6-1.7c-1,0-1.6,0.6-1.6,1.7v4h-1v-9.4h1V74c0.5-0.5,1.1-0.8,1.8-0.8
								c1.5,0,2.3,0.9,2.3,2.4v4.2H108z"/>
							<path class="st2" d="M120.1,79.8l-0.8-2.1h-4.1l-0.8,2.1h-1.1l3.5-9.4h0.8l3.5,9.4H120.1z M117.3,71.8l-1.8,5h3.5L117.3,71.8
								z"/>
							<path class="st2" d="M130.8,79.8v-4c0-1.1-0.6-1.7-1.6-1.7c-1,0-1.6,0.6-1.6,1.6v4.1h-1v-4c0-1.1-0.6-1.7-1.6-1.7
								c-1,0-1.6,0.6-1.6,1.7v4h-1v-6.5h1V74c0.5-0.5,1.1-0.8,1.8-0.8c0.9,0,1.6,0.4,2,1.1c0.5-0.7,1.2-1.1,2.1-1.1
								c0.7,0,1.3,0.2,1.7,0.6c0.5,0.4,0.7,1.1,0.7,1.8v4.2H130.8z"/>
							<path class="st2" d="M134.2,76.8c0,1.4,0.7,2.3,1.9,2.3c0.8,0,1.2-0.2,1.7-0.7l0.7,0.6c-0.7,0.7-1.3,1-2.4,1
								c-1.7,0-2.8-1-2.8-3.3c0-2.1,1-3.3,2.7-3.3c1.7,0,2.7,1.2,2.7,3.2v0.4H134.2z M137.4,75c-0.2-0.6-0.8-1-1.5-1
								c-0.7,0-1.3,0.4-1.5,1c-0.1,0.4-0.2,0.6-0.2,1.1h3.4C137.6,75.5,137.6,75.3,137.4,75z"/>
							<path class="st2" d="M143.7,74.5c-0.4-0.4-0.6-0.5-1.1-0.5c-1,0-1.6,0.8-1.6,1.7v4h-1v-6.5h1v0.8c0.4-0.5,1.1-0.9,1.8-0.9
								c0.6,0,1.1,0.1,1.6,0.6L143.7,74.5z"/>
							<path class="st2" d="M145.6,71.4v-1.1h1.1v1.1H145.6z M145.7,79.8v-6.5h0.9v6.5H145.7z"/>
							<path class="st2" d="M151.1,79.8c-1.6,0-2.9-1.1-2.9-3.3c0-2.2,1.2-3.3,2.9-3.3c0.9,0,1.5,0.2,2.1,1l-0.6,0.6
								c-0.5-0.5-0.9-0.7-1.5-0.7c-0.6,0-1.2,0.3-1.5,0.7c-0.3,0.4-0.4,0.9-0.4,1.7c0,0.8,0.1,1.3,0.4,1.7c0.4,0.5,0.9,0.7,1.5,0.7
								c0.6,0,1-0.2,1.5-0.7l0.6,0.6C152.6,79.6,152,79.8,151.1,79.8z"/>
							<path class="st2" d="M158.8,79.8v-0.6c-0.5,0.5-1,0.7-1.9,0.7c-0.9,0-1.4-0.2-1.8-0.6c-0.3-0.3-0.5-0.8-0.5-1.3
								c0-1.1,0.8-1.9,2.2-1.9h2v-0.6c0-1-0.5-1.4-1.7-1.4c-0.8,0-1.3,0.2-1.6,0.7l-0.6-0.6c0.6-0.8,1.2-1,2.3-1
								c1.7,0,2.6,0.8,2.6,2.2v4.4H158.8z M158.8,76.8H157c-1,0-1.5,0.4-1.5,1.1c0,0.8,0.5,1.1,1.5,1.1c0.6,0,1,0,1.5-0.4
								c0.2-0.2,0.3-0.6,0.3-1.1V76.8z"/>
						</g>
					</g>
				</g>
			</g>
		</g>
	</g>
</g>
</svg>
