<svg id="aacr-logo" xmlns="http://www.w3.org/2000/svg" preserveAspectRatio="xMinYMin meet" width="100%" height="100%" viewBox="0 0 574.32 64.47">
    <g id="aacr">
        <path class="aa" d="M86.76 1.34L63.74 56.42 39.83 1.34H25.8L0 63.07h12.98l19.77-50.59 11.14 26.75H29.74v10.24h18.41l5.67 13.6h20.12l19.78-50.59 11.14 26.75H90.71v10.24h18.41l5.66 13.6h12.82L100.8 1.34H86.76"></path>
        <path class="r" d="M227.02 38.08l15.44 24.99h13.42l-17.61-27.85c4.97-2.54 9.4-7.18 9.4-15.5 0-17.27-16.86-18.38-21.36-18.38h-23.62v25.9h-40.53v10.85h40.53v24.98h11.83V38.09c-.01 0 8.22-.01 12.5-.01m-.72-10.84h-11.79V11.45h11.79c3.47 0 9.63 1.36 9.63 7.82s-6.55 7.97-9.63 7.97" fill="#50b848"></path>
        <path class="c" d="M172.79 49.78c-3.16 2.01-6.9 3.17-10.91 3.17-11.38 0-20.16-9.37-20.16-20.75s8.78-20.75 20.16-20.75c5.03 0 9.63 1.84 13.21 4.86.84.69 1.62 1.44 2.34 2.26l8.94-7.51C180.46 4.21 171.72 0 161.97 0c-17.78 0-32.39 14.46-32.39 32.24s14.61 32.24 32.39 32.24c9.48 0 18-3.7 23.9-10.24l-8.88-7.57c-1.24 1.33-2.65 2.17-4.2 3.11"></path>
    </g>
    <path class="words" d="M285.72 3.68h2.31l8.34 21.98h-2.5l-2.12-5.75h-9.84l-2.12 5.75h-2.4l8.33-21.98m5.25 14.11L286.85 6.7l-4.15 11.08h8.27zm9.15-8.4v16.27h2.25v-9.9c0-2.75 1.65-4.65 3.84-4.65 2.22 0 3.53 1.59 3.53 4.5v10.06h2.25v-9.93c0-2.94 1.72-4.62 3.84-4.62 2.22 0 3.53 1.56 3.53 4.53v10.02h2.25V15.04c0-3.78-2.03-5.96-5.18-5.96-2.5 0-4 1.37-5 2.97-.78-1.78-2.31-2.97-4.5-2.97-2.34 0-3.65 1.37-4.56 2.9V9.39h-2.25m25.55 8.28v-.16c0-4.96 2.91-8.43 6.72-8.43 4.09 0 6.53 3.5 6.53 8.4 0 .22 0 .66-.03.94h-10.93c.25 3.59 2.47 5.59 5.03 5.59 1.78 0 3.09-.75 4.22-1.87l1.28 1.44c-1.47 1.5-3.15 2.44-5.59 2.44-3.99-.02-7.23-3.2-7.23-8.35m10.99-1c-.15-3.09-1.62-5.62-4.28-5.62-2.41 0-4.22 2.22-4.44 5.62h8.72zM343 9.39v16.27h2.25v-7.74c0-4.18 2.44-6.31 5.47-6.31h.13V9.17c-2.65-.13-4.62 1.53-5.59 3.81V9.39H343m11.43-5.99h2.5v2.65h-2.5V3.4zm.12 5.99h2.25v16.27h-2.25V9.39zm6.66 8.31c0 4.93 3.09 8.31 7.18 8.31 2.4 0 4.03-1.06 5.25-2.44l-1.31-1.5c-1.03 1.06-2.22 1.87-3.81 1.87-2.75 0-5-2.47-5-6.31v-.15c0-3.78 2.19-6.34 4.9-6.34 1.69 0 2.84.87 3.81 1.84l1.34-1.68c-1.25-1.25-2.81-2.22-5.12-2.22-4.06 0-7.24 3.47-7.24 8.4v.22m15.18 3.24v-.13c0-3.34 2.41-5.25 6-5.25 1.72 0 2.97.28 4.18.66v-.97c0-2.62-1.53-4.03-4.15-4.03-1.62 0-3.03.5-4.15 1.09l-.72-1.84c1.53-.75 3.12-1.31 5.12-1.31 1.97 0 3.5.56 4.56 1.62 1 1 1.56 2.5 1.56 4.4v10.46h-2.22v-2.37c-.97 1.53-2.56 2.72-4.96 2.72-2.73.01-5.22-1.83-5.22-5.05m10.21-.93v-2.03c-1.03-.37-2.34-.66-3.94-.66-2.59 0-4.03 1.34-4.03 3.4v.09c0 2.03 1.53 3.31 3.46 3.31 2.51.04 4.51-1.74 4.51-4.11zm7.02-10.62v16.27h2.25v-9.9c0-2.78 1.75-4.65 4.12-4.65s3.75 1.62 3.75 4.53v10.02h2.25V15.01c0-3.65-2-5.93-5.31-5.93-2.44 0-3.9 1.34-4.81 2.97V9.39h-2.25m32.86-5.71h2.31l8.34 21.98h-2.5l-2.12-5.75h-9.84l-2.12 5.75h-2.4l8.33-21.98m5.24 14.11L427.6 6.7l-4.15 11.08h8.27zm7.69 5.87c1.72 1.5 3.87 2.28 5.87 2.28 2.94 0 5.28-1.78 5.28-4.68v-.06c0-2.47-1.87-3.59-4.56-4.78-2.22-.94-3.62-1.62-3.62-3v-.06c0-1.28 1.09-2.28 2.81-2.28 1.44 0 2.84.62 4.09 1.53l1.09-1.72c-1.37-1.03-3.28-1.75-5.12-1.75-2.91 0-5.06 1.78-5.06 4.44v.06c0 2.53 2.06 3.56 4.65 4.69 2.19.91 3.53 1.66 3.53 3.09v.03c0 1.53-1.25 2.53-3.03 2.53-1.62 0-3.21-.69-4.75-1.97l-1.18 1.65m13.55 0c1.72 1.5 3.87 2.28 5.87 2.28 2.94 0 5.28-1.78 5.28-4.68v-.06c0-2.47-1.87-3.59-4.56-4.78-2.22-.94-3.62-1.62-3.62-3v-.06c0-1.28 1.09-2.28 2.81-2.28 1.43 0 2.84.62 4.09 1.53l1.09-1.72c-1.38-1.03-3.28-1.75-5.12-1.75-2.9 0-5.06 1.78-5.06 4.44v.06c0 2.53 2.06 3.56 4.65 4.69 2.19.91 3.53 1.66 3.53 3.09v.03c0 1.53-1.25 2.53-3.03 2.53-1.62 0-3.22-.69-4.75-1.97l-1.18 1.65m14.46-5.99v-.22c0-4.75 3.06-8.37 7.25-8.37 4.18 0 7.21 3.59 7.21 8.34v.19c0 4.75-3.06 8.4-7.25 8.4-4.18-.01-7.21-3.6-7.21-8.34m12.18-.04v-.15c0-3.65-2.19-6.37-4.97-6.37-2.87 0-4.9 2.72-4.9 6.34v.16c0 3.65 2.15 6.37 4.93 6.37 2.88-.01 4.94-2.75 4.94-6.35zm5.59.07c0 4.93 3.09 8.31 7.18 8.31 2.4 0 4.03-1.06 5.25-2.44l-1.31-1.5c-1.03 1.06-2.22 1.87-3.81 1.87-2.75 0-5-2.47-5-6.31v-.15c0-3.78 2.19-6.34 4.9-6.34 1.69 0 2.84.87 3.81 1.84l1.34-1.68c-1.25-1.25-2.81-2.22-5.12-2.22-4.06 0-7.24 3.47-7.24 8.4v.22m16.3-14.3h2.5v2.65h-2.5V3.4zm.13 5.99h2.25v16.27h-2.25V9.39zm6.49 11.55v-.13c0-3.34 2.4-5.25 6-5.25 1.72 0 2.96.28 4.18.66v-.97c0-2.62-1.53-4.03-4.15-4.03-1.62 0-3.03.5-4.15 1.09l-.72-1.84c1.53-.75 3.12-1.31 5.12-1.31 1.97 0 3.5.56 4.56 1.62 1 1 1.56 2.5 1.56 4.4v10.46h-2.22v-2.37c-.97 1.53-2.56 2.72-4.97 2.72-2.71.01-5.21-1.83-5.21-5.05m10.22-.93v-2.03c-1.03-.37-2.34-.66-3.93-.66-2.59 0-4.03 1.34-4.03 3.4v.09c0 2.03 1.53 3.31 3.47 3.31 2.49.04 4.49-1.74 4.49-4.11zm7.58 1.87c0 2.9 1.75 4.03 4.06 4.03.94 0 1.72-.22 2.44-.56v-1.94c-.66.28-1.28.44-1.9.44-1.41 0-2.34-.62-2.34-2.34V11.39h4.25v-2h-4.25V4.64h-2.25v4.74h-1.97v2h1.97v10.5M536.56 3.4h2.5v2.65h-2.5V3.4zm.13 5.99h2.25v16.27h-2.25V9.39zm6.62 8.28v-.22c0-4.75 3.06-8.37 7.24-8.37s7.21 3.59 7.21 8.34v.19c0 4.75-3.06 8.4-7.24 8.4s-7.21-3.6-7.21-8.34m12.18-.04v-.15c0-3.65-2.19-6.37-4.96-6.37-2.87 0-4.9 2.72-4.9 6.34v.16c0 3.65 2.16 6.37 4.93 6.37 2.87-.01 4.93-2.75 4.93-6.35zm6.46-8.24v16.27h2.25v-9.9c0-2.78 1.75-4.65 4.12-4.65s3.75 1.62 3.75 4.53v10.02h2.25V15.01c0-3.65-2-5.93-5.31-5.93-2.44 0-3.9 1.34-4.81 2.97V9.39h-2.25m-282.5 39.48v14.27h2.28V48.87h4.22V46.9h-4.25v-1.37c0-2.06.84-3.06 2.47-3.06.62 0 1.19.13 1.84.31v-2c-.62-.19-1.28-.31-2.15-.31-1.34 0-2.41.41-3.15 1.15-.78.81-1.25 2.09-1.25 3.78v1.5h-2v1.97h1.99m8.46 6.27v-.22c0-4.75 3.06-8.37 7.25-8.37 4.18 0 7.21 3.59 7.21 8.34v.19c0 4.75-3.06 8.4-7.24 8.4-4.19 0-7.22-3.59-7.22-8.34m12.18-.03v-.16c0-3.65-2.19-6.37-4.97-6.37-2.87 0-4.9 2.72-4.9 6.34v.16c0 3.65 2.15 6.37 4.93 6.37 2.88 0 4.94-2.75 4.94-6.34zm6.43-8.24v16.27h2.25V55.4c0-4.18 2.44-6.31 5.46-6.31h.13v-2.44c-2.65-.13-4.62 1.53-5.59 3.81v-3.59h-2.25m19.46 5.46c0 6.65 4.03 11.12 9.43 11.12 3 0 5.09-1.19 6.93-3l-1.4-1.62c-1.56 1.5-3.15 2.44-5.4 2.44-4.03 0-7.12-3.65-7.12-9.03v-.13c0-5.28 3.09-8.96 7.12-8.96 2.22 0 3.87.97 5.25 2.28l1.44-1.78c-1.72-1.59-3.65-2.69-6.65-2.69-5.46 0-9.59 4.56-9.59 11.18v.19m19.1 6.09v-.12c0-3.34 2.41-5.25 6-5.25 1.72 0 2.97.28 4.18.66v-.97c0-2.62-1.53-4.03-4.15-4.03-1.62 0-3.03.5-4.15 1.09l-.72-1.84c1.53-.75 3.12-1.31 5.12-1.31 1.97 0 3.5.56 4.56 1.62 1 1 1.56 2.5 1.56 4.4v10.46h-2.22v-2.37c-.97 1.53-2.56 2.72-4.97 2.72-2.71 0-5.21-1.84-5.21-5.06m10.21-.94v-2.03c-1.03-.37-2.34-.66-3.94-.66-2.59 0-4.03 1.34-4.03 3.4v.09c0 2.03 1.53 3.31 3.46 3.31 2.52.05 4.51-1.73 4.51-4.11zm7.03-10.61v16.27h2.25v-9.9c0-2.78 1.75-4.65 4.12-4.65s3.75 1.62 3.75 4.53v10.02h2.25V52.49c0-3.65-2-5.93-5.31-5.93-2.44 0-3.9 1.34-4.81 2.97v-2.65h-2.25m16.37 8.29c0 4.93 3.09 8.31 7.18 8.31 2.4 0 4.03-1.06 5.25-2.44l-1.31-1.5c-1.03 1.06-2.22 1.87-3.81 1.87-2.75 0-5-2.47-5-6.31v-.16c0-3.78 2.19-6.34 4.9-6.34 1.69 0 2.84.87 3.81 1.84l1.34-1.68c-1.25-1.25-2.81-2.22-5.12-2.22-4.06 0-7.24 3.47-7.24 8.4v.23m14.96-.03v-.16c0-4.97 2.9-8.43 6.71-8.43 4.09 0 6.53 3.5 6.53 8.4 0 .22 0 .66-.03.94h-10.93c.25 3.59 2.47 5.59 5.03 5.59 1.78 0 3.09-.75 4.22-1.87l1.28 1.44c-1.47 1.5-3.15 2.44-5.59 2.44-3.98-.01-7.22-3.2-7.22-8.35m10.99-1c-.15-3.09-1.62-5.62-4.28-5.62-2.4 0-4.22 2.22-4.44 5.62h8.72zm6.28-7.27v16.27h2.25V55.4c0-4.18 2.44-6.31 5.46-6.31h.12v-2.44c-2.65-.13-4.62 1.53-5.59 3.81v-3.59h-2.24m20.29-5.59h7.47c2.5 0 4.5.75 5.74 2.03 1.09 1.09 1.72 2.65 1.72 4.5v.06c0 3.47-2.15 5.56-5.18 6.31l5.87 8.96h-2.81l-5.5-8.49h-4.96v8.49h-2.34V41.28m7.05 11.24c3.56 0 5.53-1.78 5.53-4.56v-.06c0-2.87-2-4.47-5.28-4.47h-4.96v9.09h4.71zm11.31 2.62v-.16c0-4.97 2.91-8.43 6.71-8.43 4.09 0 6.53 3.5 6.53 8.4 0 .22 0 .66-.03.94h-10.93c.25 3.59 2.47 5.59 5.03 5.59 1.78 0 3.09-.75 4.21-1.87l1.28 1.44c-1.47 1.5-3.15 2.44-5.59 2.44-3.97-.01-7.21-3.2-7.21-8.35m10.99-1c-.16-3.09-1.62-5.62-4.28-5.62-2.4 0-4.21 2.22-4.43 5.62h8.71zm4.84 7c1.72 1.5 3.87 2.28 5.87 2.28 2.93 0 5.28-1.78 5.28-4.68v-.06c0-2.47-1.87-3.59-4.56-4.78-2.22-.94-3.62-1.62-3.62-3v-.06c0-1.28 1.09-2.28 2.81-2.28 1.44 0 2.84.63 4.09 1.53l1.09-1.72c-1.37-1.03-3.28-1.75-5.12-1.75-2.9 0-5.06 1.78-5.06 4.44v.06c0 2.53 2.06 3.56 4.65 4.69 2.18.91 3.53 1.65 3.53 3.09v.03c0 1.53-1.25 2.53-3.03 2.53-1.62 0-3.22-.69-4.74-1.97l-1.19 1.65m14.43-6v-.16c0-4.97 2.9-8.43 6.72-8.43 4.09 0 6.53 3.5 6.53 8.4 0 .22 0 .66-.03.94h-10.93c.25 3.59 2.47 5.59 5.03 5.59 1.78 0 3.09-.75 4.22-1.87l1.28 1.44c-1.47 1.5-3.15 2.44-5.59 2.44-3.98-.01-7.23-3.2-7.23-8.35m10.99-1c-.16-3.09-1.62-5.62-4.28-5.62-2.41 0-4.22 2.22-4.43 5.62h8.71zm5.25 4.28v-.12c0-3.34 2.4-5.25 5.99-5.25 1.72 0 2.97.28 4.18.66v-.97c0-2.62-1.53-4.03-4.15-4.03-1.62 0-3.03.5-4.15 1.09l-.72-1.84c1.53-.75 3.12-1.31 5.12-1.31 1.97 0 3.5.56 4.56 1.62 1 1 1.56 2.5 1.56 4.4v10.46h-2.22v-2.37c-.97 1.53-2.56 2.72-4.96 2.72-2.71 0-5.21-1.84-5.21-5.06m10.21-.94v-2.03c-1.03-.37-2.34-.66-3.93-.66-2.59 0-4.03 1.34-4.03 3.4v.09c0 2.03 1.53 3.31 3.47 3.31 2.49.05 4.49-1.73 4.49-4.11zm7.06-10.61v16.27h2.25V55.4c0-4.18 2.43-6.31 5.46-6.31h.13v-2.44c-2.65-.13-4.62 1.53-5.59 3.81v-3.59h-2.25m9.9 8.3c0 4.93 3.09 8.31 7.18 8.31 2.4 0 4.03-1.06 5.25-2.44l-1.31-1.5c-1.03 1.06-2.22 1.87-3.81 1.87-2.75 0-5-2.47-5-6.31v-.16c0-3.78 2.18-6.34 4.9-6.34 1.69 0 2.84.87 3.81 1.84l1.34-1.68c-1.25-1.25-2.81-2.22-5.12-2.22-4.06 0-7.24 3.47-7.24 8.4v.23m16.24-14.58v22.55h2.25v-9.9c0-2.78 1.75-4.65 4.12-4.65s3.75 1.62 3.75 4.53v10.02h2.25V52.49c0-3.65-2-5.93-5.31-5.93-2.44 0-3.9 1.34-4.81 2.97V40.6h-2.25m16.98-.01c-1.7 0-3.05 1.4-3.05 3.07v.02c0 1.66 1.33 3.05 3.05 3.05 1.7 0 3.05-1.4 3.05-3.07v-.02a3.05 3.05 0 0 0-3.05-3.05m2.69 3.06c0 1.49-1.17 2.73-2.7 2.73-1.54 0-2.7-1.23-2.7-2.72v-.02c0-1.49 1.17-2.73 2.7-2.73 1.54 0 2.7 1.23 2.7 2.72v.02zm-2.01.32c.42-.12.72-.44.72-.95 0-.65-.51-.98-1.19-.98h-1.4v3.1h.6v-1.07h.65l.73 1.07h.72l-.83-1.17m-.53-.38h-.76v-1.02h.76c.4 0 .63.17.63.51 0 .29-.22.51-.63.51z"></path>
</svg>